{
    "asset" : {
        "generator" : "Khronos glTF Blender I/O v0.9.36",
        "version" : "2.0"
    },
    "scene" : 0,
    "scenes" : [
        {
            "name" : "Scene",
            "nodes" : [
                0
            ]
        }
    ],
    "nodes" : [
        {
            "mesh" : 0,
            "name" : "Plane",
            "scale" : [
                1,
                1,
                1
            ],
            "translation" : [
                0,
                0.06558848172426224,
                0
            ]
        }
    ],
    "meshes" : [
        {
            "name" : "Plane.001",
            "primitives" : [
                {
                    "attributes" : {
                        "POSITION" : 0,
                        "NORMAL" : 1,
                        "TEXCOORD_0" : 2
                    },
                    "indices" : 3
                },
                {
                    "attributes" : {
                        "POSITION" : 4,
                        "NORMAL" : 5,
                        "TEXCOORD_0" : 6
                    },
                    "indices" : 7
                },
                {
                    "attributes" : {
                        "POSITION" : 8,
                        "NORMAL" : 9,
                        "TEXCOORD_0" : 10
                    },
                    "indices" : 11
                }
            ]
        }
    ],
    "accessors" : [
        {
            "bufferView" : 0,
            "componentType" : 5126,
            "count" : 65535,
            "max" : [
                25.664993286132812,
                5.691834449768066,
                28.007957458496094
            ],
            "min" : [
                -26.748075485229492,
                -0.21690873801708221,
                -25.663684844970703
            ],
            "type" : "VEC3"
        },
        {
            "bufferView" : 1,
            "componentType" : 5126,
            "count" : 65535,
            "type" : "VEC3"
        },
        {
            "bufferView" : 2,
            "componentType" : 5126,
            "count" : 65535,
            "type" : "VEC2"
        },
        {
            "bufferView" : 3,
            "componentType" : 5123,
            "count" : 390132,
            "type" : "SCALAR"
        },
        {
            "bufferView" : 4,
            "componentType" : 5126,
            "count" : 3,
            "max" : [
                -25.125568389892578,
                3.32226300239563,
                26.14037322998047
            ],
            "min" : [
                -25.32769775390625,
                3.280261754989624,
                25.96647071838379
            ],
            "type" : "VEC3"
        },
        {
            "bufferView" : 5,
            "componentType" : 5126,
            "count" : 3,
            "type" : "VEC3"
        },
        {
            "bufferView" : 6,
            "componentType" : 5126,
            "count" : 3,
            "type" : "VEC2"
        },
        {
            "bufferView" : 7,
            "componentType" : 5123,
            "count" : 3,
            "type" : "SCALAR"
        },
        {
            "bufferView" : 8,
            "componentType" : 5126,
            "count" : 1030,
            "max" : [
                25.565248489379883,
                4.821422576904297,
                28.20000457763672
            ],
            "min" : [
                -26.94281768798828,
                0.7321749925613403,
                -25.21462059020996
            ],
            "type" : "VEC3"
        },
        {
            "bufferView" : 9,
            "componentType" : 5126,
            "count" : 1030,
            "type" : "VEC3"
        },
        {
            "bufferView" : 10,
            "componentType" : 5126,
            "count" : 1030,
            "type" : "VEC2"
        },
        {
            "bufferView" : 11,
            "componentType" : 5123,
            "count" : 3081,
            "type" : "SCALAR"
        }
    ],
    "bufferViews" : [
        {
            "buffer" : 0,
            "byteLength" : 786420,
            "byteOffset" : 0
        },
        {
            "buffer" : 0,
            "byteLength" : 786420,
            "byteOffset" : 786420
        },
        {
            "buffer" : 0,
            "byteLength" : 524280,
            "byteOffset" : 1572840
        },
        {
            "buffer" : 0,
            "byteLength" : 780264,
            "byteOffset" : 2097120
        },
        {
            "buffer" : 0,
            "byteLength" : 36,
            "byteOffset" : 2877384
        },
        {
            "buffer" : 0,
            "byteLength" : 36,
            "byteOffset" : 2877420
        },
        {
            "buffer" : 0,
            "byteLength" : 24,
            "byteOffset" : 2877456
        },
        {
            "buffer" : 0,
            "byteLength" : 6,
            "byteOffset" : 2877480
        },
        {
            "buffer" : 0,
            "byteLength" : 12360,
            "byteOffset" : 2877488
        },
        {
            "buffer" : 0,
            "byteLength" : 12360,
            "byteOffset" : 2889848
        },
        {
            "buffer" : 0,
            "byteLength" : 8240,
            "byteOffset" : 2902208
        },
        {
            "buffer" : 0,
            "byteLength" : 6162,
            "byteOffset" : 2910448
        }
    ],
    "buffers" : [
        {
            "byteLength" : 2916612,
            "uri" : "data:application/octet-stream;base64,"
        }
    ]
}
